<?xml version="1.0" standalone="no"?><!DOCTYPE svg PUBLIC "-//W3C//DTD SVG 1.1//EN" "http://www.w3.org/Graphics/SVG/1.1/DTD/svg11.dtd"><svg t="1712676691922" class="icon" viewBox="0 0 1024 1024" version="1.1" xmlns="http://www.w3.org/2000/svg" p-id="3705" xmlns:xlink="http://www.w3.org/1999/xlink" width="128" height="128"><path d="M578.816 560.0768m-354.9696 0a354.9696 354.9696 0 1 0 709.9392 0 354.9696 354.9696 0 1 0-709.9392 0Z" fill="#56E5BE" p-id="3706"></path><path d="M614.4512 595.712m-319.2832 0a319.2832 319.2832 0 1 0 638.5664 0 319.2832 319.2832 0 1 0-638.5664 0Z" fill="#50DDB8" p-id="3707"></path><path d="M650.9568 621.7216m-277.6064 0a277.6064 277.6064 0 1 0 555.2128 0 277.6064 277.6064 0 1 0-555.2128 0Z" fill="#42D3AD" p-id="3708" data-spm-anchor-id="a313x.collections_detail.0.i0.41403a818Jm3Fu" class=""></path><path d="M514.1504 920.0128c-227.3792 0-412.3648-184.9856-412.3648-412.3648s184.9856-412.3648 412.3648-412.3648 412.3648 184.9856 412.3648 412.3648-184.9856 412.3648-412.3648 412.3648z m0-763.2384c-193.4848 0-350.9248 157.44-350.9248 350.9248s157.44 350.9248 350.9248 350.9248 350.9248-157.44 350.9248-350.9248-157.44-350.9248-350.9248-350.9248z" fill="#2E3138" p-id="3709"></path><path d="M515.1744 578.8672c-16.9472 0-30.72-13.7728-30.72-30.72V312.4736c0-16.9472 13.7728-30.72 30.72-30.72s30.72 13.7728 30.72 30.72v235.6736c0 16.9984-13.7728 30.72-30.72 30.72z" fill="#2E3138" p-id="3710"></path><path d="M514.048 666.368m-37.3248 0a37.3248 37.3248 0 1 0 74.6496 0 37.3248 37.3248 0 1 0-74.6496 0Z" fill="#2E3138" p-id="3711"></path></svg>